<?xml version="1.0" encoding="utf-8"?>
<svg xmlns="http://www.w3.org/2000/svg" xmlns:xlink="http://www.w3.org/1999/xlink" style="margin: auto; background: rgb(241, 242, 243); display: block; shape-rendering: auto;" width="287px" height="287px" viewBox="0 0 100 100" preserveAspectRatio="xMidYMid">
<g transform="translate(50 50)">
<g transform="rotate(11.9458)">
<animateTransform attributeName="transform" type="rotate" values="0;32.72727272727273" keyTimes="0;1" dur="0.2159827213822894s" repeatCount="indefinite"></animateTransform><path d="M26.622359023948274 -4.5 L33.62235902394828 -4.5 L33.62235902394828 4.5 L26.622359023948274 4.5 A27 27 0 0 1 24.829037259746748 10.607493047563484 L24.829037259746748 10.607493047563484 L30.717811989565014 14.391978769752667 L25.85204463246464 21.963260565233295 L19.96326990264637 18.178774843044113 A27 27 0 0 1 15.152671599169691 22.347182001489944 L15.152671599169691 22.347182001489944 L18.060576690182895 28.714605968971576 L9.873888731992233 32.453341085988555 L6.965983640979029 26.085917118506924 A27 27 0 0 1 0.6654397695176687 26.991798567586123 L0.6654397695176687 26.991798567586123 L-0.3307640983953263 33.92054866075265 L-9.239157075323718 32.63971511629309 L-8.242953207410723 25.71096502312656 A27 27 0 0 1 -14.033064485183486 23.066709803408937 L-14.033064485183486 23.066709803408937 L-18.61708962280048 28.356956823888744 L-25.4188357919888 22.463210218381178 L-20.834810654371807 17.17296319790137 A27 27 0 0 1 -24.276169918734443 11.81810365823269 L-24.276169918734443 11.81810365823269 L-30.992620734035924 13.790231556122698 L-33.528213745608795 5.154794793592224 L-26.81176293030731 3.1826668957022166 A27 27 0 0 1 -26.81176293030731 -3.1826668957022104 L-26.81176293030731 -3.1826668957022104 L-33.528213745608795 -5.154794793592217 L-30.992620734035928 -13.790231556122691 L-24.276169918734446 -11.818103658232685 A27 27 0 0 1 -20.834810654371815 -17.172963197901367 L-20.834810654371815 -17.172963197901367 L-25.418835791988812 -22.463210218381175 L-18.61708962280049 -28.35695682388874 L-14.033064485183491 -23.066709803408934 A27 27 0 0 1 -8.242953207410741 -25.71096502312655 L-8.242953207410741 -25.71096502312655 L-9.239157075323737 -32.63971511629308 L-0.3307640983953225 -33.92054866075265 L0.665439769517674 -26.991798567586123 A27 27 0 0 1 6.965983640979005 -26.08591711850693 L6.965983640979005 -26.08591711850693 L9.873888731992206 -32.45334108598856 L18.06057669018289 -28.714605968971576 L15.152671599169691 -22.347182001489948 A27 27 0 0 1 19.963269902646367 -18.17877484304412 L19.963269902646367 -18.17877484304412 L25.852044632464636 -21.963260565233302 L30.717811989565025 -14.391978769752654 L24.829037259746755 -10.607493047563471 A27 27 0 0 1 26.62235902394827 -4.500000000000018 M0 -21A21 21 0 1 0 0 21 A21 21 0 1 0 0 -21" fill="#6a67ce"></path></g></g>
<!-- [ldio] generated by https://loading.io/ --></svg>